<svg xmlns="http://www.w3.org/2000/svg" viewBox="0 0 512 512" xml:space="preserve"><path style="fill:#ffcc75" d="M492.936 495.66h2.723V103.49h-2.723a8.17 8.17 0 0 1-8.17-8.17h-16.34v408.51h16.34a8.17 8.17 0 0 1 8.17-8.17"/><path style="fill:#ff9d49" d="M353.962 495.66h98.123V103.49h-2.723a8.17 8.17 0 0 1-8.17-8.17h-16.34v294.128c0 .936-.169 1.854-.476 2.721a8.1 8.1 0 0 1 .476 2.726 8.17 8.17 0 0 1-8.17 8.17h-1.685L319.028 503.83h26.765a8.17 8.17 0 0 1 8.169-8.17"/><path style="fill:#ffcc75" d="M299.574 394.894a8.17 8.17 0 0 1 8.17-8.17h100.247l.519-.545v-282.69H16.34v392.17h283.234z"/><path style="fill:#ff6e1d" d="M449.362 87.149h2.723V16.34h-27.234v78.979h16.34a8.17 8.17 0 0 1 8.171-8.17"/><path style="fill:#ff9d49" d="M492.936 87.149h2.723V16.34h-27.234v78.979h16.34a8.17 8.17 0 0 1 8.171-8.17M16.34 16.34h392.17v70.809H16.34z"/><path style="fill:#ff6e1d" d="M315.915 403.064v80.34l76.514-80.34z"/><path style="fill:#082947" d="M503.83 0H8.17A8.17 8.17 0 0 0 0 8.17v495.66A8.17 8.17 0 0 0 8.17 512h299.574a8.1 8.1 0 0 0 3.937-1.012c.062-.034.12-.074.18-.109.169-.099.337-.199.498-.309q.129-.092.255-.191a8 8 0 0 0 .382-.295c.09-.076.175-.159.263-.239q.168-.151.329-.312l.072-.069 5.367-5.635 95.967-100.766h1.685a8.17 8.17 0 0 0 8.17-8.17c0-.958-.173-1.873-.476-2.726a8.2 8.2 0 0 0 .476-2.721V16.34h27.234v70.809h-2.723c-4.512 0-8.17 3.657-8.17 8.17s3.658 8.17 8.17 8.17h2.723v392.17H353.96c-4.512 0-8.17 3.657-8.17 8.17s3.658 8.17 8.17 8.17h106.294a8.17 8.17 0 0 0 8.17-8.17V16.34h27.234v70.809h-2.723c-4.512 0-8.17 3.657-8.17 8.17s3.658 8.17 8.17 8.17h2.723v392.17h-2.723c-4.512 0-8.17 3.657-8.17 8.17s3.658 8.17 8.17 8.17h10.894a8.17 8.17 0 0 0 8.17-8.17V8.17A8.17 8.17 0 0 0 503.83 0M16.34 103.489h392.17v282.689l-.519.545H307.745a8.17 8.17 0 0 0-8.17 8.17V495.66H16.34zm299.575 299.575h76.515l-76.515 80.34zM16.34 87.149V16.34h392.17v70.809z"/></svg>